# xmcd
# 
# Track frame offsets:
#     182
#     9397
#     30260
#     58200
#     86292
#     109345
#     136857
#     166297
#     190632
#     218902
#     252727
#     277457
#     299705
# 
# Disc length: 4303
# 
# Revision: 0
# Processed by: cddbd v1.5.2PL0 Copyright (c) Steve Scherf et al.
# Submitted via: fre:ac v1.0.31
# 
DISCID=c310cd0d
DTITLE=CHAGE&ASKA - RED HILL
DYEAR=1993
DGENRE=JPop
TTITLE0=夜明けは沈黙のなかへ
TTITLE1=なぜに君は帰らない
TTITLE2=夢の番人
TTITLE3=螢
TTITLE4=今夜ちょっとさ
TTITLE5=THE TIME
TTITLE6=君はなにも知らないまま
TTITLE7=Mr.J の悲劇は岩より重い
TTITLE8=You are free
TTITLE9=RED HILL
TTITLE10=TAO
TTITLE11=YAH YAH YAH(RED HILL)
TTITLE12=Sons and Daughters〜それより僕が伝えたいのは
EXTD=YEAR: 1993
EXTT0=
EXTT1=
EXTT2=
EXTT3=
EXTT4=
EXTT5=
EXTT6=
EXTT7=
EXTT8=
EXTT9=
EXTT10=
EXTT11=
EXTT12=
PLAYORDER=
